<svg xmlns="http://www.w3.org/2000/svg" xmlns:xlink="http://www.w3.org/1999/xlink" width="500" zoomAndPan="magnify" viewBox="0 0 375 374.999991" height="500" preserveAspectRatio="xMidYMid meet" version="1.0"><defs><g/><clipPath id="ce61e79bc7"><path d="M 22 7.835938 L 368 7.835938 L 368 337.835938 L 22 337.835938 Z M 22 7.835938 " clip-rule="nonzero"/></clipPath><clipPath id="6deb3d1ec7"><path d="M 15 7.835938 L 374.886719 7.835938 L 374.886719 337.835938 L 15 337.835938 Z M 15 7.835938 " clip-rule="nonzero"/></clipPath><clipPath id="430686fba3"><path d="M 15 105 L 147 105 L 147 337.835938 L 15 337.835938 Z M 15 105 " clip-rule="nonzero"/></clipPath><clipPath id="b42f0c3f5f"><path d="M 230 7.835938 L 374.886719 7.835938 L 374.886719 231 L 230 231 Z M 230 7.835938 " clip-rule="nonzero"/></clipPath></defs><rect x="-37.5" width="450" fill="#ffffff" y="-37.499999" height="449.999989" fill-opacity="1"/><rect x="-37.5" width="450" fill="#000000" y="-37.499999" height="449.999989" fill-opacity="1"/><g clip-path="url(#ce61e79bc7)"><path fill="#8c52ff" d="M 22.4375 0.570312 L 367.441406 345.542969 " fill-opacity="1" fill-rule="nonzero"/></g><g clip-path="url(#6deb3d1ec7)"><path fill="#8c52ff" d="M 367.441406 352.40625 C 365.6875 352.40625 363.929688 351.734375 362.589844 350.394531 L 17.578125 5.421875 C 14.898438 2.742188 14.898438 -1.605469 17.578125 -4.289062 C 20.257812 -6.96875 24.605469 -6.96875 27.289062 -4.289062 L 372.300781 340.683594 C 374.980469 343.363281 374.980469 347.710938 372.300781 350.390625 C 370.960938 351.734375 369.203125 352.40625 367.441406 352.40625 Z M 367.441406 352.40625 " fill-opacity="1" fill-rule="nonzero"/></g><g clip-path="url(#430686fba3)"><path fill="#8c52ff" d="M 22.4375 352.40625 C 22.429688 352.40625 22.429688 352.40625 22.4375 352.40625 C 18.636719 352.40625 15.566406 349.328125 15.566406 345.535156 L 15.640625 114.992188 C 15.640625 111.03125 18.007812 107.488281 21.675781 105.96875 C 25.335938 104.445312 29.519531 105.28125 32.324219 108.085938 L 143.988281 218.808594 C 146.679688 221.476562 146.703125 225.824219 144.027344 228.511719 C 141.359375 231.210938 137.011719 231.226562 134.316406 228.554688 L 29.367188 124.496094 L 29.296875 345.535156 C 29.296875 349.335938 26.222656 352.40625 22.4375 352.40625 Z M 22.628906 117.8125 C 22.632812 117.820312 22.644531 117.832031 22.652344 117.835938 Z M 22.628906 117.8125 " fill-opacity="1" fill-rule="nonzero"/></g><g clip-path="url(#b42f0c3f5f)"><path fill="#8c52ff" d="M 367.441406 230.550781 C 363.652344 230.550781 360.578125 227.480469 360.574219 223.6875 L 360.507812 12.949219 L 241.824219 130.734375 C 239.140625 133.40625 234.792969 133.390625 232.117188 130.699219 C 229.445312 128.007812 229.460938 123.660156 232.152344 120.992188 L 357.578125 -3.488281 C 360.363281 -6.277344 364.542969 -7.105469 368.203125 -5.589844 C 371.871094 -4.074219 374.238281 -0.53125 374.238281 3.4375 L 374.3125 223.683594 C 374.3125 227.476562 371.238281 230.546875 367.441406 230.550781 Z M 367.265625 6.234375 L 367.242188 6.257812 C 367.253906 6.25 367.261719 6.246094 367.265625 6.234375 Z M 367.265625 6.234375 " fill-opacity="1" fill-rule="nonzero"/></g><g fill="#004aad" fill-opacity="1"><g transform="translate(56.085776, 331.788009)"><g><path d="M 8.5625 -16.0625 L 15.71875 -0.515625 C 15.78125 -0.359375 15.78125 -0.234375 15.71875 -0.140625 C 15.664062 -0.046875 15.554688 0 15.390625 0 L 12.3125 0 C 12.0625 0 11.894531 -0.109375 11.8125 -0.328125 L 11.109375 -2.109375 L 4.9375 -2.109375 L 4.21875 -0.328125 C 4.132812 -0.109375 3.972656 0 3.734375 0 L 0.65625 0 C 0.5 0 0.390625 -0.046875 0.328125 -0.140625 C 0.265625 -0.234375 0.265625 -0.359375 0.328125 -0.515625 L 7.5 -16.0625 C 7.632812 -16.375 7.804688 -16.53125 8.015625 -16.53125 C 8.234375 -16.53125 8.414062 -16.375 8.5625 -16.0625 Z M 8.015625 -9.875 L 6.0625 -4.921875 L 10 -4.921875 Z M 8.015625 -9.875 "/></g></g></g><g fill="#004aad" fill-opacity="1"><g transform="translate(89.286869, 331.788009)"><g><path d="M 10.0625 0 L 2.015625 0 C 1.734375 0 1.59375 -0.140625 1.59375 -0.421875 L 1.59375 -15.640625 C 1.59375 -15.921875 1.734375 -16.0625 2.015625 -16.0625 L 4.8125 -16.0625 C 5.09375 -16.0625 5.234375 -15.921875 5.234375 -15.640625 L 5.234375 -3.15625 L 10.0625 -3.15625 C 10.34375 -3.15625 10.484375 -3.015625 10.484375 -2.734375 L 10.484375 -0.421875 C 10.484375 -0.140625 10.34375 0 10.0625 0 Z M 10.0625 0 "/></g></g></g><g fill="#004aad" fill-opacity="1"><g transform="translate(117.310907, 331.788009)"><g><path d="M 4.828125 0 L 2.015625 0 C 1.734375 0 1.59375 -0.140625 1.59375 -0.421875 L 1.59375 -15.640625 C 1.59375 -15.921875 1.734375 -16.0625 2.015625 -16.0625 L 8.015625 -16.0625 C 9.140625 -16.0625 10.078125 -15.925781 10.828125 -15.65625 C 11.585938 -15.394531 12.191406 -15.023438 12.640625 -14.546875 C 13.097656 -14.078125 13.425781 -13.519531 13.625 -12.875 C 13.820312 -12.238281 13.921875 -11.550781 13.921875 -10.8125 C 13.921875 -9.664062 13.710938 -8.6875 13.296875 -7.875 C 12.890625 -7.0625 12.296875 -6.4375 11.515625 -6 C 10.734375 -5.570312 9.785156 -5.359375 8.671875 -5.359375 L 5.265625 -5.359375 L 5.265625 -0.421875 C 5.265625 -0.140625 5.117188 0 4.828125 0 Z M 5.265625 -12.90625 L 5.265625 -8.515625 L 7.4375 -8.515625 C 7.59375 -8.515625 7.789062 -8.519531 8.03125 -8.53125 C 8.269531 -8.550781 8.519531 -8.59375 8.78125 -8.65625 C 9.039062 -8.726562 9.285156 -8.84375 9.515625 -9 C 9.742188 -9.164062 9.925781 -9.390625 10.0625 -9.671875 C 10.207031 -9.960938 10.28125 -10.332031 10.28125 -10.78125 C 10.28125 -11.195312 10.210938 -11.539062 10.078125 -11.8125 C 9.953125 -12.082031 9.78125 -12.289062 9.5625 -12.4375 C 9.351562 -12.59375 9.117188 -12.703125 8.859375 -12.765625 C 8.609375 -12.828125 8.359375 -12.863281 8.109375 -12.875 C 7.859375 -12.894531 7.632812 -12.90625 7.4375 -12.90625 Z M 5.265625 -12.90625 "/></g></g></g><g fill="#004aad" fill-opacity="1"><g transform="translate(149.14191, 331.788009)"><g><path d="M 4.8125 0 L 2.015625 0 C 1.734375 0 1.59375 -0.140625 1.59375 -0.421875 L 1.59375 -15.640625 C 1.59375 -15.921875 1.734375 -16.0625 2.015625 -16.0625 L 4.8125 -16.0625 C 5.09375 -16.0625 5.234375 -15.921875 5.234375 -15.640625 L 5.234375 -8.5 L 11.484375 -8.5 L 11.484375 -15.640625 C 11.484375 -15.921875 11.625 -16.0625 11.90625 -16.0625 L 14.71875 -16.0625 C 15 -16.0625 15.140625 -15.921875 15.140625 -15.640625 L 15.140625 -0.421875 C 15.140625 -0.140625 15 0 14.71875 0 L 11.90625 0 C 11.625 0 11.484375 -0.140625 11.484375 -0.421875 L 11.484375 -5.328125 L 5.234375 -5.328125 L 5.234375 -0.421875 C 5.234375 -0.140625 5.09375 0 4.8125 0 Z M 4.8125 0 "/></g></g></g><g fill="#004aad" fill-opacity="1"><g transform="translate(183.02282, 331.788009)"><g><path d="M 9.546875 0.40625 C 8.273438 0.40625 7.113281 0.207031 6.0625 -0.1875 C 5.007812 -0.582031 4.097656 -1.148438 3.328125 -1.890625 C 2.566406 -2.640625 1.976562 -3.53125 1.5625 -4.5625 C 1.144531 -5.601562 0.9375 -6.757812 0.9375 -8.03125 C 0.9375 -9.3125 1.144531 -10.46875 1.5625 -11.5 C 1.976562 -12.53125 2.566406 -13.414062 3.328125 -14.15625 C 4.097656 -14.90625 5.007812 -15.476562 6.0625 -15.875 C 7.113281 -16.269531 8.273438 -16.46875 9.546875 -16.46875 C 10.804688 -16.46875 11.960938 -16.269531 13.015625 -15.875 C 14.078125 -15.476562 14.988281 -14.90625 15.75 -14.15625 C 16.519531 -13.414062 17.113281 -12.53125 17.53125 -11.5 C 17.957031 -10.46875 18.171875 -9.3125 18.171875 -8.03125 C 18.171875 -6.757812 17.957031 -5.601562 17.53125 -4.5625 C 17.113281 -3.53125 16.519531 -2.640625 15.75 -1.890625 C 14.988281 -1.148438 14.078125 -0.582031 13.015625 -0.1875 C 11.960938 0.207031 10.804688 0.40625 9.546875 0.40625 Z M 9.546875 -2.921875 C 10.265625 -2.921875 10.925781 -3.039062 11.53125 -3.28125 C 12.144531 -3.519531 12.671875 -3.863281 13.109375 -4.3125 C 13.554688 -4.757812 13.898438 -5.296875 14.140625 -5.921875 C 14.390625 -6.546875 14.515625 -7.25 14.515625 -8.03125 C 14.515625 -8.8125 14.390625 -9.515625 14.140625 -10.140625 C 13.898438 -10.773438 13.554688 -11.3125 13.109375 -11.75 C 12.671875 -12.195312 12.144531 -12.539062 11.53125 -12.78125 C 10.925781 -13.019531 10.265625 -13.140625 9.546875 -13.140625 C 8.816406 -13.140625 8.148438 -13.019531 7.546875 -12.78125 C 6.941406 -12.539062 6.414062 -12.195312 5.96875 -11.75 C 5.53125 -11.3125 5.191406 -10.773438 4.953125 -10.140625 C 4.710938 -9.515625 4.59375 -8.8125 4.59375 -8.03125 C 4.59375 -7.257812 4.710938 -6.554688 4.953125 -5.921875 C 5.203125 -5.296875 5.546875 -4.757812 5.984375 -4.3125 C 6.421875 -3.875 6.941406 -3.53125 7.546875 -3.28125 C 8.160156 -3.039062 8.828125 -2.921875 9.546875 -2.921875 Z M 9.546875 -2.921875 "/></g></g></g><g fill="#004aad" fill-opacity="1"><g transform="translate(219.277847, 331.788009)"><g><path d="M 4.734375 0 L 2.046875 0 C 1.753906 0 1.609375 -0.140625 1.609375 -0.421875 L 1.609375 -15.703125 C 1.609375 -16.066406 1.710938 -16.300781 1.921875 -16.40625 C 2.128906 -16.507812 2.375 -16.425781 2.65625 -16.15625 L 11.734375 -7.109375 L 11.734375 -15.640625 C 11.734375 -15.921875 11.878906 -16.0625 12.171875 -16.0625 L 14.859375 -16.0625 C 15.140625 -16.0625 15.28125 -15.921875 15.28125 -15.640625 L 15.28125 -0.375 C 15.28125 -0.132812 15.226562 0.046875 15.125 0.171875 C 15.019531 0.304688 14.878906 0.359375 14.703125 0.328125 C 14.535156 0.304688 14.347656 0.195312 14.140625 0 L 5.140625 -9.171875 L 5.140625 -0.421875 C 5.140625 -0.140625 5.003906 0 4.734375 0 Z M 4.734375 0 "/></g></g></g><g fill="#004aad" fill-opacity="1"><g transform="translate(253.30517, 331.788009)"><g><path d="M 9.53125 0.40625 C 8.269531 0.40625 7.113281 0.207031 6.0625 -0.1875 C 5.007812 -0.582031 4.097656 -1.148438 3.328125 -1.890625 C 2.566406 -2.640625 1.976562 -3.53125 1.5625 -4.5625 C 1.144531 -5.601562 0.9375 -6.757812 0.9375 -8.03125 C 0.9375 -9.3125 1.144531 -10.46875 1.5625 -11.5 C 1.976562 -12.53125 2.566406 -13.414062 3.328125 -14.15625 C 4.097656 -14.90625 5.007812 -15.476562 6.0625 -15.875 C 7.113281 -16.269531 8.269531 -16.46875 9.53125 -16.46875 C 10.945312 -16.46875 12.226562 -16.21875 13.375 -15.71875 C 14.519531 -15.21875 15.472656 -14.519531 16.234375 -13.625 C 16.421875 -13.425781 16.394531 -13.234375 16.15625 -13.046875 L 13.859375 -11.484375 C 13.648438 -11.328125 13.457031 -11.351562 13.28125 -11.5625 C 12.832031 -12.050781 12.289062 -12.4375 11.65625 -12.71875 C 11.019531 -13 10.3125 -13.140625 9.53125 -13.140625 C 8.8125 -13.140625 8.148438 -13.019531 7.546875 -12.78125 C 6.941406 -12.539062 6.421875 -12.195312 5.984375 -11.75 C 5.546875 -11.3125 5.203125 -10.773438 4.953125 -10.140625 C 4.710938 -9.515625 4.59375 -8.8125 4.59375 -8.03125 C 4.59375 -7.257812 4.710938 -6.554688 4.953125 -5.921875 C 5.203125 -5.296875 5.546875 -4.757812 5.984375 -4.3125 C 6.421875 -3.875 6.941406 -3.53125 7.546875 -3.28125 C 8.160156 -3.039062 8.828125 -2.921875 9.546875 -2.921875 C 10.316406 -2.921875 11.019531 -3.0625 11.65625 -3.34375 C 12.289062 -3.625 12.832031 -4.007812 13.28125 -4.5 C 13.445312 -4.707031 13.640625 -4.734375 13.859375 -4.578125 L 16.15625 -3.015625 C 16.394531 -2.835938 16.4375 -2.65625 16.28125 -2.46875 C 15.519531 -1.570312 14.5625 -0.867188 13.40625 -0.359375 C 12.257812 0.148438 10.96875 0.40625 9.53125 0.40625 Z M 9.53125 0.40625 "/></g></g></g><g fill="#004aad" fill-opacity="1"><g transform="translate(287.489375, 331.788009)"><g><path d="M 11.390625 0 L 2.015625 0 C 1.734375 0 1.59375 -0.140625 1.59375 -0.421875 L 1.59375 -15.640625 C 1.59375 -15.921875 1.734375 -16.0625 2.015625 -16.0625 L 11.390625 -16.0625 C 11.671875 -16.0625 11.8125 -15.921875 11.8125 -15.640625 L 11.8125 -13.34375 C 11.8125 -13.050781 11.671875 -12.90625 11.390625 -12.90625 L 5.234375 -12.90625 L 5.234375 -8.40625 L 10.546875 -8.40625 C 10.835938 -8.40625 10.984375 -8.265625 10.984375 -7.984375 L 10.984375 -5.84375 C 10.984375 -5.5625 10.835938 -5.421875 10.546875 -5.421875 L 5.234375 -5.421875 L 5.234375 -3.15625 L 11.390625 -3.15625 C 11.671875 -3.15625 11.8125 -3.015625 11.8125 -2.734375 L 11.8125 -0.421875 C 11.8125 -0.140625 11.671875 0 11.390625 0 Z M 11.390625 0 "/></g></g></g></svg>