<svg xmlns="http://www.w3.org/2000/svg" xmlns:xlink="http://www.w3.org/1999/xlink" width="500" zoomAndPan="magnify" viewBox="0 0 375 374.999991" height="500" preserveAspectRatio="xMidYMid meet" version="1.0"><defs><g/><clipPath id="5659b5809c"><path d="M 17 17.425781 L 363 17.425781 L 363 347.644531 L 17 347.644531 Z M 17 17.425781 " clip-rule="nonzero"/></clipPath><clipPath id="ecbfc8a958"><path d="M 10 17.425781 L 369 17.425781 L 369 347.644531 L 10 347.644531 Z M 10 17.425781 " clip-rule="nonzero"/></clipPath><clipPath id="32cc6b0c16"><path d="M 10 114 L 141 114 L 141 347.644531 L 10 347.644531 Z M 10 114 " clip-rule="nonzero"/></clipPath><clipPath id="bc66c6c9b5"><path d="M 224 17.425781 L 370 17.425781 L 370 241 L 224 241 Z M 224 17.425781 " clip-rule="nonzero"/></clipPath></defs><rect x="-37.5" width="450" fill="#ffffff" y="-37.499999" height="449.999989" fill-opacity="1"/><rect x="-37.5" width="450" fill="#000000" y="-37.499999" height="449.999989" fill-opacity="1"/><g clip-path="url(#5659b5809c)"><path fill="#fffbfa" d="M 17.148438 10.167969 L 362.136719 355.121094 " fill-opacity="1" fill-rule="nonzero"/></g><g clip-path="url(#ecbfc8a958)"><path fill="#fffbfa" d="M 362.136719 361.984375 C 360.382812 361.984375 358.621094 361.316406 357.28125 359.976562 L 12.289062 15.019531 C 9.609375 12.34375 9.609375 7.996094 12.289062 5.308594 C 14.96875 2.628906 19.316406 2.628906 22 5.308594 L 366.992188 350.261719 C 369.671875 352.941406 369.671875 357.289062 366.992188 359.96875 C 365.652344 361.316406 363.894531 361.984375 362.136719 361.984375 Z M 362.136719 361.984375 " fill-opacity="1" fill-rule="nonzero"/></g><g clip-path="url(#32cc6b0c16)"><path fill="#fffbfa" d="M 17.148438 361.984375 C 17.140625 361.984375 17.140625 361.984375 17.148438 361.984375 C 13.351562 361.984375 10.28125 358.90625 10.28125 355.117188 L 10.351562 124.585938 C 10.351562 120.625 12.71875 117.082031 16.386719 115.558594 C 20.046875 114.039062 24.230469 114.875 27.035156 117.675781 L 138.695312 228.394531 C 141.382812 231.0625 141.40625 235.410156 138.734375 238.101562 C 136.066406 240.796875 131.71875 240.8125 129.019531 238.140625 L 24.078125 134.085938 L 24.007812 355.117188 C 24.007812 358.914062 20.933594 361.984375 17.148438 361.984375 Z M 17.339844 127.40625 C 17.347656 127.410156 17.355469 127.421875 17.363281 127.429688 Z M 17.339844 127.40625 " fill-opacity="1" fill-rule="nonzero"/></g><g clip-path="url(#bc66c6c9b5)"><path fill="#fffbfa" d="M 362.136719 240.136719 C 358.34375 240.136719 355.273438 237.066406 355.265625 233.273438 L 355.199219 22.546875 L 236.523438 140.324219 C 233.839844 143 229.492188 142.980469 226.820312 140.289062 C 224.144531 137.601562 224.164062 133.253906 226.851562 130.585938 L 352.269531 6.109375 C 355.058594 3.324219 359.234375 2.496094 362.894531 4.011719 C 366.5625 5.523438 368.929688 9.066406 368.929688 13.035156 L 369.003906 233.269531 C 369.003906 237.0625 365.933594 240.132812 362.136719 240.136719 Z M 361.960938 15.832031 L 361.9375 15.855469 C 361.949219 15.851562 361.953125 15.84375 361.960938 15.832031 Z M 361.960938 15.832031 " fill-opacity="1" fill-rule="nonzero"/></g><g fill="#8c52ff" fill-opacity="1"><g transform="translate(50.797625, 341.38089)"><g><path d="M 8.5625 -16.0625 L 15.71875 -0.515625 C 15.78125 -0.359375 15.78125 -0.234375 15.71875 -0.140625 C 15.664062 -0.046875 15.554688 0 15.390625 0 L 12.3125 0 C 12.0625 0 11.894531 -0.109375 11.8125 -0.328125 L 11.109375 -2.109375 L 4.9375 -2.109375 L 4.21875 -0.328125 C 4.132812 -0.109375 3.972656 0 3.734375 0 L 0.65625 0 C 0.5 0 0.390625 -0.046875 0.328125 -0.140625 C 0.265625 -0.234375 0.265625 -0.359375 0.328125 -0.515625 L 7.5 -16.0625 C 7.632812 -16.375 7.804688 -16.53125 8.015625 -16.53125 C 8.234375 -16.53125 8.414062 -16.375 8.5625 -16.0625 Z M 8.015625 -9.875 L 6.0625 -4.921875 L 10 -4.921875 Z M 8.015625 -9.875 "/></g></g></g><g fill="#8c52ff" fill-opacity="1"><g transform="translate(83.998718, 341.38089)"><g><path d="M 10.0625 0 L 2.015625 0 C 1.734375 0 1.59375 -0.140625 1.59375 -0.421875 L 1.59375 -15.640625 C 1.59375 -15.921875 1.734375 -16.0625 2.015625 -16.0625 L 4.8125 -16.0625 C 5.09375 -16.0625 5.234375 -15.921875 5.234375 -15.640625 L 5.234375 -3.15625 L 10.0625 -3.15625 C 10.34375 -3.15625 10.484375 -3.015625 10.484375 -2.734375 L 10.484375 -0.421875 C 10.484375 -0.140625 10.34375 0 10.0625 0 Z M 10.0625 0 "/></g></g></g><g fill="#8c52ff" fill-opacity="1"><g transform="translate(112.022755, 341.38089)"><g><path d="M 4.828125 0 L 2.015625 0 C 1.734375 0 1.59375 -0.140625 1.59375 -0.421875 L 1.59375 -15.640625 C 1.59375 -15.921875 1.734375 -16.0625 2.015625 -16.0625 L 8.015625 -16.0625 C 9.140625 -16.0625 10.078125 -15.925781 10.828125 -15.65625 C 11.585938 -15.394531 12.191406 -15.023438 12.640625 -14.546875 C 13.097656 -14.078125 13.425781 -13.519531 13.625 -12.875 C 13.820312 -12.238281 13.921875 -11.550781 13.921875 -10.8125 C 13.921875 -9.664062 13.710938 -8.6875 13.296875 -7.875 C 12.890625 -7.0625 12.296875 -6.4375 11.515625 -6 C 10.734375 -5.570312 9.785156 -5.359375 8.671875 -5.359375 L 5.265625 -5.359375 L 5.265625 -0.421875 C 5.265625 -0.140625 5.117188 0 4.828125 0 Z M 5.265625 -12.90625 L 5.265625 -8.515625 L 7.4375 -8.515625 C 7.59375 -8.515625 7.789062 -8.519531 8.03125 -8.53125 C 8.269531 -8.550781 8.519531 -8.59375 8.78125 -8.65625 C 9.039062 -8.726562 9.285156 -8.84375 9.515625 -9 C 9.742188 -9.164062 9.925781 -9.390625 10.0625 -9.671875 C 10.207031 -9.960938 10.28125 -10.332031 10.28125 -10.78125 C 10.28125 -11.195312 10.210938 -11.539062 10.078125 -11.8125 C 9.953125 -12.082031 9.78125 -12.289062 9.5625 -12.4375 C 9.351562 -12.59375 9.117188 -12.703125 8.859375 -12.765625 C 8.609375 -12.828125 8.359375 -12.863281 8.109375 -12.875 C 7.859375 -12.894531 7.632812 -12.90625 7.4375 -12.90625 Z M 5.265625 -12.90625 "/></g></g></g><g fill="#8c52ff" fill-opacity="1"><g transform="translate(143.853759, 341.38089)"><g><path d="M 4.8125 0 L 2.015625 0 C 1.734375 0 1.59375 -0.140625 1.59375 -0.421875 L 1.59375 -15.640625 C 1.59375 -15.921875 1.734375 -16.0625 2.015625 -16.0625 L 4.8125 -16.0625 C 5.09375 -16.0625 5.234375 -15.921875 5.234375 -15.640625 L 5.234375 -8.5 L 11.484375 -8.5 L 11.484375 -15.640625 C 11.484375 -15.921875 11.625 -16.0625 11.90625 -16.0625 L 14.71875 -16.0625 C 15 -16.0625 15.140625 -15.921875 15.140625 -15.640625 L 15.140625 -0.421875 C 15.140625 -0.140625 15 0 14.71875 0 L 11.90625 0 C 11.625 0 11.484375 -0.140625 11.484375 -0.421875 L 11.484375 -5.328125 L 5.234375 -5.328125 L 5.234375 -0.421875 C 5.234375 -0.140625 5.09375 0 4.8125 0 Z M 4.8125 0 "/></g></g></g><g fill="#8c52ff" fill-opacity="1"><g transform="translate(177.734668, 341.38089)"><g><path d="M 9.546875 0.40625 C 8.273438 0.40625 7.113281 0.207031 6.0625 -0.1875 C 5.007812 -0.582031 4.097656 -1.148438 3.328125 -1.890625 C 2.566406 -2.640625 1.976562 -3.53125 1.5625 -4.5625 C 1.144531 -5.601562 0.9375 -6.757812 0.9375 -8.03125 C 0.9375 -9.3125 1.144531 -10.46875 1.5625 -11.5 C 1.976562 -12.53125 2.566406 -13.414062 3.328125 -14.15625 C 4.097656 -14.90625 5.007812 -15.476562 6.0625 -15.875 C 7.113281 -16.269531 8.273438 -16.46875 9.546875 -16.46875 C 10.804688 -16.46875 11.960938 -16.269531 13.015625 -15.875 C 14.078125 -15.476562 14.988281 -14.90625 15.75 -14.15625 C 16.519531 -13.414062 17.113281 -12.53125 17.53125 -11.5 C 17.957031 -10.46875 18.171875 -9.3125 18.171875 -8.03125 C 18.171875 -6.757812 17.957031 -5.601562 17.53125 -4.5625 C 17.113281 -3.53125 16.519531 -2.640625 15.75 -1.890625 C 14.988281 -1.148438 14.078125 -0.582031 13.015625 -0.1875 C 11.960938 0.207031 10.804688 0.40625 9.546875 0.40625 Z M 9.546875 -2.921875 C 10.265625 -2.921875 10.925781 -3.039062 11.53125 -3.28125 C 12.144531 -3.519531 12.671875 -3.863281 13.109375 -4.3125 C 13.554688 -4.757812 13.898438 -5.296875 14.140625 -5.921875 C 14.390625 -6.546875 14.515625 -7.25 14.515625 -8.03125 C 14.515625 -8.8125 14.390625 -9.515625 14.140625 -10.140625 C 13.898438 -10.773438 13.554688 -11.3125 13.109375 -11.75 C 12.671875 -12.195312 12.144531 -12.539062 11.53125 -12.78125 C 10.925781 -13.019531 10.265625 -13.140625 9.546875 -13.140625 C 8.816406 -13.140625 8.148438 -13.019531 7.546875 -12.78125 C 6.941406 -12.539062 6.414062 -12.195312 5.96875 -11.75 C 5.53125 -11.3125 5.191406 -10.773438 4.953125 -10.140625 C 4.710938 -9.515625 4.59375 -8.8125 4.59375 -8.03125 C 4.59375 -7.257812 4.710938 -6.554688 4.953125 -5.921875 C 5.203125 -5.296875 5.546875 -4.757812 5.984375 -4.3125 C 6.421875 -3.875 6.941406 -3.53125 7.546875 -3.28125 C 8.160156 -3.039062 8.828125 -2.921875 9.546875 -2.921875 Z M 9.546875 -2.921875 "/></g></g></g><g fill="#8c52ff" fill-opacity="1"><g transform="translate(213.989695, 341.38089)"><g><path d="M 4.734375 0 L 2.046875 0 C 1.753906 0 1.609375 -0.140625 1.609375 -0.421875 L 1.609375 -15.703125 C 1.609375 -16.066406 1.710938 -16.300781 1.921875 -16.40625 C 2.128906 -16.507812 2.375 -16.425781 2.65625 -16.15625 L 11.734375 -7.109375 L 11.734375 -15.640625 C 11.734375 -15.921875 11.878906 -16.0625 12.171875 -16.0625 L 14.859375 -16.0625 C 15.140625 -16.0625 15.28125 -15.921875 15.28125 -15.640625 L 15.28125 -0.375 C 15.28125 -0.132812 15.226562 0.046875 15.125 0.171875 C 15.019531 0.304688 14.878906 0.359375 14.703125 0.328125 C 14.535156 0.304688 14.347656 0.195312 14.140625 0 L 5.140625 -9.171875 L 5.140625 -0.421875 C 5.140625 -0.140625 5.003906 0 4.734375 0 Z M 4.734375 0 "/></g></g></g><g fill="#8c52ff" fill-opacity="1"><g transform="translate(248.017019, 341.38089)"><g><path d="M 9.53125 0.40625 C 8.269531 0.40625 7.113281 0.207031 6.0625 -0.1875 C 5.007812 -0.582031 4.097656 -1.148438 3.328125 -1.890625 C 2.566406 -2.640625 1.976562 -3.53125 1.5625 -4.5625 C 1.144531 -5.601562 0.9375 -6.757812 0.9375 -8.03125 C 0.9375 -9.3125 1.144531 -10.46875 1.5625 -11.5 C 1.976562 -12.53125 2.566406 -13.414062 3.328125 -14.15625 C 4.097656 -14.90625 5.007812 -15.476562 6.0625 -15.875 C 7.113281 -16.269531 8.269531 -16.46875 9.53125 -16.46875 C 10.945312 -16.46875 12.226562 -16.21875 13.375 -15.71875 C 14.519531 -15.21875 15.472656 -14.519531 16.234375 -13.625 C 16.421875 -13.425781 16.394531 -13.234375 16.15625 -13.046875 L 13.859375 -11.484375 C 13.648438 -11.328125 13.457031 -11.351562 13.28125 -11.5625 C 12.832031 -12.050781 12.289062 -12.4375 11.65625 -12.71875 C 11.019531 -13 10.3125 -13.140625 9.53125 -13.140625 C 8.8125 -13.140625 8.148438 -13.019531 7.546875 -12.78125 C 6.941406 -12.539062 6.421875 -12.195312 5.984375 -11.75 C 5.546875 -11.3125 5.203125 -10.773438 4.953125 -10.140625 C 4.710938 -9.515625 4.59375 -8.8125 4.59375 -8.03125 C 4.59375 -7.257812 4.710938 -6.554688 4.953125 -5.921875 C 5.203125 -5.296875 5.546875 -4.757812 5.984375 -4.3125 C 6.421875 -3.875 6.941406 -3.53125 7.546875 -3.28125 C 8.160156 -3.039062 8.828125 -2.921875 9.546875 -2.921875 C 10.316406 -2.921875 11.019531 -3.0625 11.65625 -3.34375 C 12.289062 -3.625 12.832031 -4.007812 13.28125 -4.5 C 13.445312 -4.707031 13.640625 -4.734375 13.859375 -4.578125 L 16.15625 -3.015625 C 16.394531 -2.835938 16.4375 -2.65625 16.28125 -2.46875 C 15.519531 -1.570312 14.5625 -0.867188 13.40625 -0.359375 C 12.257812 0.148438 10.96875 0.40625 9.53125 0.40625 Z M 9.53125 0.40625 "/></g></g></g><g fill="#8c52ff" fill-opacity="1"><g transform="translate(282.201224, 341.38089)"><g><path d="M 11.390625 0 L 2.015625 0 C 1.734375 0 1.59375 -0.140625 1.59375 -0.421875 L 1.59375 -15.640625 C 1.59375 -15.921875 1.734375 -16.0625 2.015625 -16.0625 L 11.390625 -16.0625 C 11.671875 -16.0625 11.8125 -15.921875 11.8125 -15.640625 L 11.8125 -13.34375 C 11.8125 -13.050781 11.671875 -12.90625 11.390625 -12.90625 L 5.234375 -12.90625 L 5.234375 -8.40625 L 10.546875 -8.40625 C 10.835938 -8.40625 10.984375 -8.265625 10.984375 -7.984375 L 10.984375 -5.84375 C 10.984375 -5.5625 10.835938 -5.421875 10.546875 -5.421875 L 5.234375 -5.421875 L 5.234375 -3.15625 L 11.390625 -3.15625 C 11.671875 -3.15625 11.8125 -3.015625 11.8125 -2.734375 L 11.8125 -0.421875 C 11.8125 -0.140625 11.671875 0 11.390625 0 Z M 11.390625 0 "/></g></g></g></svg>